# xmcd CD database file
#
# Track frame offsets:
#	150
#	19463
#	39605
#	58040
#	77188
#	97913
#	117523
#	136060
#	157330
#	177398
#	194270
#	211583
#	228845
#	244968
#
# Disc length: 3469 seconds
#
# Revision: 0
# Processed by: cddbd v1.5.1PL0 Copyright (c) Steve Scherf et al.
# Submitted via: CDex 1.51
#
DISCID=c00d8b0e
DTITLE=五木ひろし - 五木ひろし 全曲集
DYEAR=1989
DGENRE=Vocal
TTITLE0=暖簾(のれん)
TTITLE1=面影の郷
TTITLE2=港の五番町(ニューバージョン)
TTITLE3=二枚目酒(居酒屋パート?)
TTITLE4=追憶
TTITLE5=浪花盃
TTITLE6=そして・・・めぐり逢い
TTITLE7=長良川艶歌
TTITLE8=細雪
TTITLE9=人生かくれんぼ
TTITLE10=居酒屋
TTITLE11=ふたりの夜明け
TTITLE12=倖せさがして
TTITLE13=おまえとふたり
EXTD=YEAR: 1989
EXTT0=
EXTT1=
EXTT2=
EXTT3=
EXTT4=
EXTT5=
EXTT6=
EXTT7=
EXTT8=
EXTT9=
EXTT10=
EXTT11=
EXTT12=
EXTT13=
PLAYORDER=
